<?xml version="1.0" encoding="UTF-8" standalone="no"?>
<!DOCTYPE svg PUBLIC "-//W3C//DTD SVG 1.1//EN" "http://www.w3.org/Graphics/SVG/1.1/DTD/svg11.dtd">
<svg width="100%" height="100%" viewBox="0 0 300 100" version="1.1" xmlns="http://www.w3.org/2000/svg" xmlns:xlink="http://www.w3.org/1999/xlink" xml:space="preserve" xmlns:serif="http://www.serif.com/" style="fill-rule:evenodd;clip-rule:evenodd;">
    <g transform="matrix(1,0,0,1,1.05652,0)">
        <path d="M30,20L30,80" style="fill:none;fill-rule:nonzero;stroke:black;stroke-width:2px;"/>
    </g>
    <path d="M30,80L270,80" style="fill:none;fill-rule:nonzero;stroke:black;stroke-width:2px;"/>
    <g transform="matrix(1,0,0,1,22.8153,92.7205)">
        <text x="0px" y="0px" style="font-family:'PermanentMarker-Regular', 'Permanent Marker';font-size:12px;">0V</text>
    </g>
    <g transform="matrix(1,0,0,1,18.8152,15.4538)">
        <text x="0px" y="0px" style="font-family:'PermanentMarker-Regular', 'Permanent Marker';font-size:12px;">3.3V</text>
    </g>
    <g transform="matrix(1,0,0,1,240,92.7498)">
        <text x="0px" y="0px" style="font-family:'PermanentMarker-Regular', 'Permanent Marker';font-size:12px;">Time</text>
    </g>
    <g transform="matrix(1,0,0,1,194.225,14.2513)">
        <text x="0px" y="0px" style="font-family:'PermanentMarker-Regular', 'Permanent Marker';font-size:12px;">High</text>
    </g>
    <g transform="matrix(1,0,0,1,74.2581,14.2513)">
        <text x="0px" y="0px" style="font-family:'PermanentMarker-Regular', 'Permanent Marker';font-size:12px;">High</text>
    </g>
    <g transform="matrix(1,0,0,1,137.774,75.2895)">
        <text x="0px" y="0px" style="font-family:'PermanentMarker-Regular', 'Permanent Marker';font-size:12px;">Low</text>
    </g>
    <g transform="matrix(0.985041,0,0,1,3.59018,0)">
        <path d="M30,80L60,80L60,20L120,20L120,80L180,80L180,20L240,20L240,80" style="fill:none;fill-rule:nonzero;stroke:black;stroke-width:2px;"/>
    </g>
</svg>
